<svg width="24" height="24" viewBox="0 0 24 24" fill="none" xmlns="http://www.w3.org/2000/svg">
<path fill-rule="evenodd" clip-rule="evenodd" d="M10.5 1.2C8.67747 1.2 7.20001 2.67746 7.20001 4.5V5.03123C6.24567 5.12366 5.29923 5.24336 4.3615 5.38955C3.87038 5.46611 3.53431 5.92632 3.61088 6.41744C3.68744 6.90857 4.14765 7.24463 4.63877 7.16807C4.6979 7.15885 4.75706 7.14974 4.81627 7.14074L5.82606 19.7632C5.96326 21.4782 7.39506 22.8 9.11555 22.8H14.8842C16.6047 22.8 18.0365 21.4782 18.1737 19.7632L19.1835 7.14066C19.2429 7.14969 19.3022 7.15882 19.3615 7.16807C19.8526 7.24463 20.3128 6.90857 20.3894 6.41744C20.466 5.92632 20.1299 5.46611 19.6388 5.38955C18.701 5.24334 17.7544 5.12364 16.8 5.03121V4.5C16.8 2.67746 15.3225 1.2 13.5 1.2H10.5ZM12.0001 4.8C13.0074 4.8 14.0076 4.83028 15 4.88998V4.5C15 3.67157 14.3284 3 13.5 3H10.5C9.67158 3 9.00001 3.67157 9.00001 4.5V4.89C9.99249 4.83028 10.9928 4.8 12.0001 4.8ZM10.1455 9.27002C10.1289 8.85614 9.78001 8.53404 9.36612 8.5506C8.95224 8.56715 8.63014 8.91609 8.6467 9.32997L9.00671 18.33C9.02327 18.7439 9.37221 19.066 9.78609 19.0494C10.2 19.0328 10.5221 18.6839 10.5055 18.27L10.1455 9.27002ZM15.3535 9.32997C15.3701 8.91609 15.048 8.56715 14.6341 8.5506C14.2202 8.53404 13.8713 8.85614 13.8547 9.27002L13.4947 18.27C13.4782 18.6839 13.8003 19.0328 14.2141 19.0494C14.628 19.066 14.977 18.7439 14.9935 18.33L15.3535 9.32997Z" fill="white"/>
</svg>
